<?xml version="1.0" standalone="no"?>
<!DOCTYPE svg PUBLIC "-//W3C//DTD SVG 20010904//EN"
 "http://www.w3.org/TR/2001/REC-SVG-20010904/DTD/svg10.dtd">
<svg version="1.0" xmlns="http://www.w3.org/2000/svg"
 width="200.000000pt" height="200.000000pt" viewBox="0 0 200.000000 200.000000"
 preserveAspectRatio="xMidYMid meet">
<metadata>
Created by potrace 1.11, written by Peter Selinger 2001-2013
</metadata>
<g transform="translate(0.000000,200.000000) scale(0.100000,-0.100000)"
fill="#000000" stroke="none">
<path d="M1395 1311 c-83 -21 -146 -82 -170 -165 -28 -94 -13 -181 42 -246 64
-75 140 -99 251 -80 l69 11 6 92 c6 75 10 95 27 109 37 30 24 38 -65 38 -62 0
-85 -3 -85 -13 0 -7 10 -17 23 -22 20 -9 22 -17 22 -90 l0 -80 -46 -9 c-102
-20 -169 54 -177 193 -5 89 9 148 44 190 49 59 150 60 194 3 11 -15 30 -38 40
-52 l19 -25 1 57 c0 57 -1 58 -36 73 -45 18 -120 26 -159 16z"/>
<path d="M683 1296 c-3 -5 2 -13 10 -18 36 -20 37 -41 11 -203 -25 -159 -40
-208 -69 -218 -36 -15 -11 -27 55 -27 54 0 70 3 70 14 0 8 -9 17 -19 21 -10 3
-21 18 -24 33 -6 29 21 252 32 264 6 7 90 -238 105 -304 9 -41 34 -34 46 13 6
23 32 100 58 172 52 149 51 149 72 -29 14 -119 11 -143 -20 -151 -11 -3 -20
-12 -20 -19 0 -11 20 -14 90 -14 50 0 90 3 90 6 0 3 -13 18 -28 32 -26 25 -29
38 -51 197 -12 94 -19 178 -16 187 4 10 16 20 26 23 37 12 13 27 -44 29 -49 1
-57 -2 -57 -17 0 -26 -93 -307 -101 -307 -8 0 -96 261 -101 299 -3 21 -8 23
-56 25 -30 1 -56 -3 -59 -8z"/>
<path d="M1747 1289 c-45 -35 -56 -121 -22 -171 6 -9 40 -40 76 -68 99 -79
119 -122 78 -174 -41 -52 -127 -18 -148 59 -14 54 -31 41 -31 -23 0 -59 0 -60
38 -78 111 -53 222 9 222 124 0 48 -27 85 -108 144 -80 59 -92 74 -92 111 0
40 26 67 64 67 41 0 62 -15 80 -60 22 -54 36 -50 36 11 0 48 -2 51 -35 65 -51
21 -127 18 -158 -7z"/>
<path d="M390 1286 c-28 -35 11 -93 48 -70 35 22 22 84 -18 84 -10 0 -23 -7
-30 -14z"/>
<path d="M275 1251 c-27 -6 -31 -11 -26 -41 0 -5 24 -10 51 -10 64 0 98 -17
148 -76 27 -32 45 -45 56 -41 23 9 20 29 -14 75 -26 36 -34 41 -58 36 -24 -5
-33 0 -53 24 -26 32 -58 42 -104 33z"/>
<path d="M161 1186 c-24 -25 -31 -40 -26 -54 7 -24 -17 -77 -40 -85 -28 -11
-16 -120 13 -115 13 2 16 17 17 63 2 70 28 129 76 169 19 16 29 32 25 41 -9
24 -30 18 -65 -19z"/>
<path d="M235 1161 c-128 -79 -124 -269 7 -337 35 -18 101 -18 136 0 65 34
102 96 102 171 0 75 -37 137 -102 171 -38 20 -107 18 -143 -5z m55 -2 c0 -6
-9 -13 -19 -16 -12 -3 -17 -11 -14 -19 3 -8 0 -14 -6 -14 -6 0 -11 -7 -11 -15
0 -8 -6 -24 -12 -35 -18 -28 1 -56 35 -52 24 3 27 -1 33 -37 4 -22 12 -48 19
-58 11 -15 14 -14 30 11 14 20 20 24 27 14 5 -8 6 -1 2 18 -4 21 -1 34 10 43
9 7 14 17 11 21 -7 11 22 33 35 25 5 -3 10 -16 10 -28 0 -18 2 -19 10 -7 15
24 22 -10 11 -59 -13 -57 -34 -87 -81 -111 -89 -46 -180 -1 -180 88 0 19 -7
30 -22 37 -19 9 -23 17 -21 53 2 55 29 98 78 128 45 27 55 29 55 13z m45 -59
c18 -8 18 -9 -5 -9 -14 0 -34 4 -45 9 -18 8 -18 9 5 9 14 0 34 -4 45 -9z"/>
<path d="M58 1149 c-22 -12 -23 -52 -4 -68 35 -29 76 35 44 67 -14 14 -18 14
-40 1z"/>
<path d="M499 1063 c-1 -5 -3 -35 -4 -68 -3 -71 -31 -134 -75 -167 -20 -14
-30 -30 -28 -43 5 -33 36 -29 73 8 29 29 34 40 29 65 -5 24 0 36 25 62 33 35
40 75 21 124 -9 24 -38 37 -41 19z"/>
<path d="M514 895 c-15 -23 -15 -27 0 -50 18 -28 28 -30 57 -15 12 7 19 21 19
38 0 54 -47 70 -76 27z"/>
<path d="M104 896 c-14 -35 51 -112 86 -101 15 5 28 -1 49 -24 25 -27 36 -31
80 -31 38 0 53 4 58 16 9 24 -13 39 -56 35 -55 -4 -102 20 -147 73 -39 47 -60
57 -70 32z"/>
<path d="M947 782 c-21 -23 -22 -75 -3 -92 26 -20 61 -8 64 23 2 19 -1 27 -12
27 -9 0 -13 -6 -10 -15 8 -19 -4 -35 -21 -29 -36 14 -23 84 16 84 11 0 17 5
14 10 -10 15 -30 12 -48 -8z"/>
<path d="M1122 788 c-18 -18 -15 -35 9 -52 24 -17 19 -49 -6 -40 -8 3 -15 1
-15 -6 0 -6 11 -10 28 -8 35 4 43 41 13 60 -24 15 -28 38 -6 38 8 0 15 5 15
10 0 14 -23 13 -38 -2z"/>
<path d="M1380 786 c0 -7 -9 -16 -19 -19 -47 -12 -44 -87 4 -87 24 0 25 2 25
60 0 33 -2 60 -5 60 -3 0 -5 -6 -5 -14z m0 -60 c0 -31 -14 -40 -30 -21 -15 18
-6 45 15 45 9 0 15 -9 15 -24z"/>
<path d="M1578 794 c-5 -4 -8 -29 -8 -56 0 -36 4 -50 16 -55 45 -17 71 62 27
82 -12 5 -24 16 -25 23 -2 8 -6 10 -10 6z m45 -56 c6 -18 -12 -50 -24 -43 -15
10 -11 55 5 55 8 0 16 -6 19 -12z"/>
<path d="M1920 786 c0 -7 -9 -16 -20 -19 -25 -6 -34 -29 -26 -62 5 -20 13 -25
36 -25 30 0 30 0 30 60 0 33 -4 60 -10 60 -5 0 -10 -6 -10 -14z m0 -60 c0 -31
-16 -42 -28 -19 -12 22 -5 43 14 43 8 0 14 -10 14 -24z"/>
<path d="M650 735 c0 -54 0 -55 30 -55 17 0 30 5 30 10 0 6 -9 10 -20 10 -17
0 -20 7 -20 45 0 25 -4 45 -10 45 -5 0 -10 -25 -10 -55z"/>
<path d="M1497 743 c-20 -56 -21 -71 -5 -55 16 16 45 15 51 0 2 -7 7 -11 10
-7 7 6 -24 109 -33 109 -3 0 -14 -21 -23 -47z m33 -14 c0 -5 -4 -9 -10 -9 -5
0 -10 7 -10 16 0 8 5 12 10 9 6 -3 10 -10 10 -16z"/>
<path d="M170 766 c-28 -35 11 -93 48 -70 35 22 22 84 -18 84 -10 0 -23 -7
-30 -14z"/>
<path d="M817 772 c-2 -4 -2 -26 1 -49 3 -31 9 -43 20 -43 12 0 13 3 4 12 -15
15 -16 58 -2 58 6 0 10 4 10 9 0 11 -28 22 -33 13z"/>
<path d="M1190 746 c0 -46 9 -66 28 -66 12 0 13 3 4 12 -15 15 -16 58 -1 58 8
0 8 5 -1 15 -20 24 -30 18 -30 -19z"/>
<path d="M744 762 c-18 -12 -24 -42 -14 -63 11 -20 50 -27 50 -9 0 6 -3 9 -7
9 -19 -3 -33 2 -33 11 0 6 11 10 24 10 32 0 40 14 20 34 -17 18 -24 19 -40 8z
m28 -24 c-9 -9 -15 -9 -24 0 -9 9 -7 12 12 12 19 0 21 -3 12 -12z"/>
<path d="M873 755 c-3 -9 2 -24 11 -34 20 -22 21 -32 1 -25 -8 4 -15 1 -15 -6
0 -15 42 -9 47 7 2 6 -6 21 -18 32 -19 18 -20 21 -6 21 9 0 17 5 17 10 0 16
-30 12 -37 -5z"/>
<path d="M1042 758 c-23 -23 -11 -78 17 -78 23 0 41 20 41 45 0 23 -17 45 -35
45 -6 0 -16 -5 -23 -12z m38 -32 c0 -14 -4 -27 -9 -30 -13 -9 -32 19 -25 38
10 25 34 19 34 -8z"/>
<path d="M1254 730 c1 -41 3 -45 29 -48 26 -3 27 -1 27 37 0 24 -5 41 -11 41
-7 0 -9 -10 -7 -25 3 -14 -1 -30 -8 -36 -15 -13 -20 -5 -27 46 -3 17 -4 10 -3
-15z"/>
<path d="M1456 758 c-3 -10 -9 -26 -12 -35 -5 -15 -8 -12 -19 12 -16 37 -19
20 -4 -24 9 -24 8 -35 -2 -48 -12 -14 -12 -16 1 -11 16 5 53 94 47 112 -3 6
-7 3 -11 -6z"/>
<path d="M1668 763 c-20 -5 -26 -67 -8 -78 6 -4 10 8 10 29 0 25 4 36 15 36 8
0 15 5 15 10 0 10 -3 11 -32 3z"/>
<path d="M1720 756 c-15 -19 -9 -56 12 -69 34 -22 66 41 36 71 -16 16 -33 15
-48 -2z m38 -31 c-2 -14 -7 -26 -13 -26 -5 0 -11 12 -13 26 -2 18 1 25 13 25
12 0 15 -7 13 -25z"/>
<path d="M1805 760 c-3 -6 4 -10 17 -10 22 -1 22 -2 -5 -16 -38 -20 -32 -48
10 -52 32 -3 33 -2 27 30 -3 18 -7 39 -10 46 -4 14 -30 16 -39 2z m33 -52 c-6
-18 -28 -21 -28 -4 0 9 7 16 16 16 9 0 14 -5 12 -12z"/>
</g>
</svg>
